<svg
  xmlns="http://www.w3.org/2000/svg"
  viewBox="0 0 100 100"
  width="100"
  height="100"
>
  <!-- Ponteiro -->
  <polygon points="50,2 44,14 56,14" fill="#ef4444" />

  <!-- Fatias da roleta -->
  <g transform="rotate(-90 50 50)">
    <path d="M50 50 L50 5 A45 45 0 0 1 86 23 Z" fill="#3b82f6"/>
    <path d="M50 50 L86 23 A45 45 0 0 1 95 50 Z" fill="#ef4444"/>
    <path d="M50 50 L95 50 A45 45 0 0 1 86 77 Z" fill="#f59e0b"/>
    <path d="M50 50 L86 77 A45 45 0 0 1 50 95 Z" fill="#22c55e"/>
    <path d="M50 50 L50 95 A45 45 0 0 1 14 77 Z" fill="#a855f7"/>
    <path d="M50 50 L14 77 A45 45 0 0 1 5 50 Z" fill="#eab308"/>
    <path d="M50 50 L5 50 A45 45 0 0 1 14 23 Z" fill="#ec4899"/>
    <path d="M50 50 L14 23 A45 45 0 0 1 50 5 Z" fill="#06b6d4"/>
  </g>

  <!-- Centro -->
  <circle cx="50" cy="50" r="8" fill="#ffffff" />
</svg>
